<svg xmlns="http://www.w3.org/2000/svg" version="1.1" xmlns:xlink="http://www.w3.org/1999/xlink" xmlns:svgjs="http://svgjs.com/svgjs" width="1920" height="1080" preserveAspectRatio="none" viewBox="0 0 1920 1080"><g mask="url(&quot;#SvgjsMask1112&quot;)" fill="none"><path d="M -684.4890356139119,165 C -492.49,266 -108.49,701 275.510964386088,670 C 659.51,639 851.51,-38.4 1235.510964386088,10 C 1619.51,58.4 2058.61,904.2 2195.510964386088,912 C 2332.41,919.8 1975.1,221.6 1920,49" stroke="rgba(166, 93, 106, 0.25)" stroke-width="2"></path><path d="M -1840.1471906164934,924 C -1648.15,808.6 -1264.15,355.6 -880.1471906164933,347 C -496.15,338.4 -304.15,914.6 79.85280938350672,881 C 463.85,847.4 671.82,163 1039.8528093835066,179 C 1407.88,195 1743.97,804.6 1920,961" stroke="rgba(166, 93, 106, 0.25)" stroke-width="2"></path><path d="M -329.39624851593385,675 C -137.4,607.2 246.6,304.8 630.6037514840662,336 C 1014.6,367.2 1206.6,804.4 1590.6037514840662,831 C 1974.6,857.6 2484.72,468.2 2550.6037514840664,469 C 2616.48,469.8 2046.12,761.8 1920,835" stroke="rgba(166, 93, 106, 0.25)" stroke-width="2"></path><path d="M -803.1365807147171,1071 C -611.14,951.6 -227.14,505.2 156.86341928528293,474 C 540.86,442.8 732.86,913.4 1116.8634192852828,915 C 1500.86,916.6 1916.24,450.2 2076.863419285283,482 C 2237.49,513.8 1951.37,955.6 1920,1074" stroke="rgba(52, 49, 64, 0.5)" stroke-width="2"></path><path d="M -1485.058222571712,1051 C -1293.06,848.8 -909.06,40 -525.0582225717119,40 C -141.06,40 50.94,980 434.9417774282881,1051 C 818.94,1122 1097.93,483.8 1394.941777428288,395 C 1691.95,306.2 1814.99,564.6 1920,607" stroke="rgba(52, 49, 64, 0.5)" stroke-width="2"></path><path d="M -27.04837761862632,238 C 164.95,372.8 548.95,922 932.9516223813737,912 C 1316.95,902 1508.95,259.2 1892.9516223813737,188 C 2276.95,116.8 2847.54,537.2 2852.9516223813735,556 C 2858.36,574.8 2106.59,336.8 1920,282" stroke="rgba(166, 93, 106, 0.25)" stroke-width="2"></path><path d="M -671.399160569288,765 C -479.4,716.4 -95.4,471.6 288.60083943071197,522 C 672.6,572.4 864.6,1109 1248.6008394307119,1017 C 1632.6,925 2074.32,114 2208.600839430712,62 C 2342.88,10 1977.72,618 1920,757" stroke="rgba(166, 93, 106, 0.25)" stroke-width="2"></path></g><defs><mask id="SvgjsMask1112"><rect width="1920" height="1080" fill="#ffffff"></rect></mask></defs></svg>