<svg xmlns="http://www.w3.org/2000/svg" version="1.1" xmlns:xlink="http://www.w3.org/1999/xlink" xmlns:svgjs="http://svgjs.com/svgjs" width="1920" height="1080" preserveAspectRatio="none" viewBox="0 0 1920 1080"><g mask="url(&quot;#SvgjsMask1003&quot;)" fill="none"><path d="M -1327.1787440538105,569 C -1135.18,455.4 -751.18,-54.2 -367.17874405381053,1 C 16.82,56.2 208.82,780.6 592.8212559461895,845 C 976.82,909.4 1287.39,348.2 1552.8212559461895,323 C 1818.26,297.8 1846.56,639.8 1920,719" stroke="rgba(166, 93, 106, 0.25)" stroke-width="2"></path><path d="M -1774.890939633569,907 C -1582.89,734 -1198.89,10.6 -814.8909396335689,42 C -430.89,73.4 -238.89,1041.2 145.1090603664311,1064 C 529.11,1086.8 750.13,251.6 1105.109060366431,156 C 1460.09,60.4 1757.02,500 1920,586" stroke="rgba(52, 49, 64, 0.24)" stroke-width="2"></path><path d="M -1865.0667819345877,976 C -1673.07,854.2 -1289.07,363.6 -905.0667819345875,367 C -521.07,370.4 -329.07,1045.8 54.93321806541246,993 C 438.93,940.2 641.92,108.2 1014.9332180654125,103 C 1387.95,97.8 1738.99,794.2 1920,967" stroke="rgba(217, 167, 180, 0.31)" stroke-width="2"></path><path d="M -1236.5414588680703,298 C -1044.54,362.2 -660.54,649.4 -276.5414588680704,619 C 107.46,588.6 299.46,57.4 683.4585411319297,146 C 1067.46,234.6 1396.15,1000.8 1643.4585411319297,1062 C 1890.77,1123.2 1864.69,574 1920,452" stroke="rgba(52, 49, 64, 0.24)" stroke-width="2"></path><path d="M -1160.8895261812945,335 C -968.89,401.6 -584.89,643.8 -200.88952618129463,668 C 183.11,692.2 375.11,434.6 759.1104738187054,456 C 1143.11,477.4 1486.93,853 1719.1104738187055,775 C 1951.29,697 1879.82,207.8 1920,66" stroke="rgba(166, 93, 106, 0.25)" stroke-width="2"></path></g><defs><mask id="SvgjsMask1003"><rect width="1920" height="1080" fill="#ffffff"></rect></mask></defs></svg>